<svg width="791" height="791" viewBox="0 0 791 791" fill="none" xmlns="http://www.w3.org/2000/svg">
<rect width="791" height="791" fill="#F5F5F5"/>
<rect width="791" height="791" fill="#D9D9D9"/>
<path d="M582.46 518.642C581.235 507.168 576.072 498.235 566.97 491.842C557.956 485.448 546.229 482.251 531.789 482.251C521.637 482.251 512.93 483.784 505.666 486.849C498.402 489.915 492.845 494.075 488.994 499.33C485.144 504.585 483.175 510.584 483.087 517.328C483.087 522.933 484.356 527.794 486.894 531.91C489.519 536.027 493.064 539.53 497.527 542.42C501.99 545.223 506.935 547.588 512.361 549.515C517.787 551.441 523.256 553.062 528.77 554.375L553.974 560.681C564.126 563.046 573.884 566.243 583.248 570.272C592.699 574.3 601.145 579.38 608.583 585.511C616.11 591.642 622.061 599.042 626.436 607.713C630.812 616.384 633 626.543 633 638.192C633 653.956 628.974 667.838 620.923 679.837C612.872 691.748 601.232 701.076 586.005 707.82C570.864 714.476 552.53 717.804 531.001 717.804C510.085 717.804 491.926 714.563 476.523 708.082C461.208 701.601 449.219 692.142 440.555 679.706C431.978 667.269 427.34 652.117 426.64 634.25H474.554C475.255 643.622 478.142 651.417 483.218 657.635C488.294 663.853 494.902 668.495 503.041 671.561C511.267 674.626 520.456 676.159 530.608 676.159C541.197 676.159 550.474 674.582 558.437 671.429C566.489 668.189 572.79 663.722 577.341 658.029C581.891 652.249 584.21 645.505 584.298 637.798C584.21 630.791 582.154 625.011 578.128 620.456C574.103 615.814 568.458 611.961 561.194 608.895C554.018 605.742 545.616 602.94 535.99 600.487L505.403 592.605C483.262 586.912 465.759 578.285 452.895 566.724C440.117 555.076 433.729 539.618 433.729 520.35C433.729 504.497 438.017 490.615 446.593 478.704C455.257 466.793 467.028 457.553 481.906 450.984C496.783 444.328 513.63 441 532.446 441C551.524 441 568.239 444.328 582.591 450.984C597.031 457.553 608.365 466.705 616.591 478.441C624.817 490.09 629.062 503.49 629.324 518.642H582.46Z" fill="black"/>
<path d="M390.311 579.205C390.311 608.195 384.884 633.024 374.033 653.694C363.268 674.276 348.566 690.04 329.925 700.988C311.372 711.936 290.325 717.41 266.783 717.41C243.242 717.41 222.151 711.936 203.51 700.988C184.957 689.953 170.254 674.144 159.403 653.562C148.638 632.893 143.256 608.107 143.256 579.205C143.256 550.215 148.638 525.429 159.403 504.848C170.254 484.178 184.957 468.369 203.51 457.422C222.151 446.474 243.242 441 266.783 441C290.325 441 311.372 446.474 329.925 457.422C348.566 468.369 363.268 484.178 374.033 504.848C384.884 525.429 390.311 550.215 390.311 579.205ZM341.346 579.205C341.346 558.798 338.152 541.588 331.763 527.575C325.462 513.474 316.71 502.833 305.509 495.651C294.307 488.382 281.398 484.747 266.783 484.747C252.168 484.747 239.26 488.382 228.058 495.651C216.856 502.833 208.061 513.474 201.672 527.575C195.371 541.588 192.221 558.798 192.221 579.205C192.221 599.612 195.371 616.865 201.672 630.966C208.061 644.979 216.856 655.621 228.058 662.89C239.26 670.072 252.168 673.663 266.783 673.663C281.398 673.663 294.307 670.072 305.509 662.89C316.71 655.621 325.462 644.979 331.763 630.966C338.152 616.865 341.346 599.612 341.346 579.205Z" fill="black"/>
<path d="M167 362.645V74.9336H357.836V118.624H167V196.733H347.95V240.424H167V318.954H358.982V362.645H167Z" fill="black"/>
<path d="M433 362.645V74.9336H623.836V118.624H433V196.733H613.95V240.424H433V318.954H624.982V362.645H433Z" fill="black"/>
</svg>
