<svg width="490" height="641" viewBox="0 0 490 641" fill="none" xmlns="http://www.w3.org/2000/svg">
<path d="M439.204 441.708C437.979 430.235 432.815 421.301 423.714 414.908C414.7 408.514 402.973 405.318 388.533 405.318C378.381 405.318 369.674 406.85 362.41 409.916C355.146 412.981 349.589 417.141 345.738 422.396C341.888 427.651 339.919 433.651 339.831 440.394C339.831 446 341.1 450.861 343.638 454.977C346.263 459.093 349.808 462.597 354.271 465.487C358.734 468.289 363.679 470.654 369.105 472.581C374.531 474.508 380 476.128 385.514 477.442L410.718 483.748C420.87 486.112 430.628 489.309 439.992 493.338C449.443 497.367 457.888 502.447 465.327 508.577C472.854 514.708 478.805 522.109 483.18 530.779C487.556 539.45 489.744 549.61 489.744 561.258C489.744 577.023 485.718 590.905 477.667 602.903C469.615 614.815 457.976 624.142 442.748 630.886C427.608 637.542 409.274 640.87 387.745 640.87C366.829 640.87 348.67 637.63 333.267 631.149C317.952 624.668 305.963 615.209 297.299 602.772C288.722 590.335 284.084 575.184 283.384 557.317H331.298C331.998 566.688 334.886 574.483 339.962 580.701C345.038 586.92 351.646 591.562 359.784 594.627C368.011 597.692 377.2 599.225 387.352 599.225C397.941 599.225 407.217 597.649 415.181 594.496C423.233 591.255 429.534 586.788 434.084 581.095C438.635 575.315 440.954 568.571 441.042 560.864C440.954 553.857 438.898 548.077 434.872 543.523C430.846 538.881 425.202 535.027 417.938 531.962C410.762 528.809 402.36 526.006 392.734 523.554L362.147 515.671C340.006 509.979 322.503 501.352 309.638 489.791C296.861 478.142 290.473 462.684 290.473 443.416C290.473 427.564 294.761 413.682 303.337 401.771C312.001 389.859 323.772 380.619 338.65 374.051C353.527 367.395 370.374 364.066 389.189 364.066C408.268 364.066 424.983 367.395 439.335 374.051C453.775 380.619 465.108 389.772 473.335 401.508C481.561 413.156 485.806 426.556 486.068 441.708H439.204Z" fill="white"/>
<path d="M247.054 502.271C247.054 531.261 241.628 556.091 230.777 576.76C220.012 597.342 205.31 613.107 186.669 624.055C168.116 635.002 147.069 640.476 123.527 640.476C99.9857 640.476 78.8946 635.002 60.254 624.055C41.7008 613.019 26.9983 597.211 16.1465 576.629C5.38218 555.959 -1.27673e-05 531.174 -1.27673e-05 502.271C-1.27673e-05 473.282 5.38218 448.496 16.1465 427.914C26.9983 407.245 41.7008 391.436 60.254 380.488C78.8946 369.54 99.9857 364.066 123.527 364.066C147.069 364.066 168.116 369.54 186.669 380.488C205.31 391.436 220.012 407.245 230.777 427.914C241.628 448.496 247.054 473.282 247.054 502.271ZM198.09 502.271C198.09 481.865 194.896 464.655 188.507 450.642C182.206 436.541 173.454 425.9 162.252 418.718C151.051 411.448 138.142 407.814 123.527 407.814C108.912 407.814 96.0038 411.448 84.8019 418.718C73.6 425.9 64.8047 436.541 58.4162 450.642C52.1151 464.655 48.9646 481.865 48.9646 502.271C48.9646 522.678 52.1151 539.932 58.4162 554.033C64.8047 568.046 73.6 578.687 84.8019 585.956C96.0038 593.138 108.912 596.729 123.527 596.729C138.142 596.729 151.051 593.138 162.252 585.956C173.454 578.687 182.206 568.046 188.507 554.033C194.896 539.932 198.09 522.678 198.09 502.271Z" fill="white"/>
<path d="M30.7439 287.711V-1.3113e-05H221.58V43.6906H30.7439V121.8H211.694V165.49H30.7439V244.021H222.726V287.711H30.7439Z" fill="white"/>
<path d="M290.744 287.711V-1.3113e-05H481.58V43.6906H290.744V121.8H471.694V165.49H290.744V244.021H482.726V287.711H290.744Z" fill="white"/>
</svg>
