<svg width="1000" height="297" viewBox="0 0 1000 297" fill="none" xmlns="http://www.w3.org/2000/svg">
<path d="M945.773 83.3066C944.458 70.9962 938.918 61.411 929.152 54.551C919.481 47.691 906.898 44.261 891.405 44.261C880.512 44.261 871.169 45.9056 863.375 49.1946C855.582 52.4836 849.619 56.9473 845.487 62.5857C841.356 68.224 839.243 74.6611 839.149 81.897C839.149 87.9113 840.511 93.1267 843.234 97.5434C846.051 101.96 849.854 105.719 854.643 108.82C859.432 111.827 864.737 114.365 870.559 116.432C876.381 118.499 882.249 120.238 888.165 121.647L915.208 128.413C926.101 130.951 936.571 134.381 946.618 138.703C956.759 143.026 965.82 148.477 973.802 155.055C981.877 161.633 988.262 169.573 992.957 178.877C997.652 188.18 1000 199.081 1000 211.579C1000 228.494 995.681 243.389 987.042 256.263C978.403 269.043 965.914 279.051 949.576 286.287C933.331 293.429 913.659 297 890.56 297C868.117 297 848.633 293.523 832.107 286.569C815.674 279.615 802.81 269.466 793.514 256.122C784.312 242.778 779.335 226.521 778.584 207.35H829.994C830.745 217.405 833.844 225.769 839.29 232.441C844.736 239.113 851.826 244.094 860.558 247.383C869.385 250.672 879.245 252.316 890.137 252.316C901.499 252.316 911.452 250.625 919.997 247.242C928.636 243.765 935.397 238.972 940.28 232.864C945.162 226.662 947.651 219.426 947.745 211.156C947.651 203.638 945.444 197.436 941.125 192.55C936.805 187.569 930.749 183.434 922.955 180.145C915.255 176.762 906.241 173.755 895.912 171.124L863.094 162.666C839.337 156.558 820.557 147.302 806.754 134.898C793.044 122.399 786.19 105.813 786.19 85.1391C786.19 68.13 790.791 53.2354 799.993 40.4552C809.289 27.6749 821.919 17.7608 837.882 10.7129C853.845 3.57095 871.92 0 892.109 0C912.579 0 930.514 3.57095 945.914 10.7129C961.407 17.7608 973.567 27.5809 982.394 40.1732C991.22 52.6716 995.774 67.0494 996.056 83.3066H945.773Z" fill="black"/>
<path d="M739.603 148.289C739.603 179.393 733.782 206.035 722.138 228.212C710.588 250.296 694.813 267.211 674.812 278.957C654.906 290.704 632.323 296.577 607.064 296.577C581.804 296.577 559.175 290.704 539.174 278.957C519.267 267.117 503.492 250.155 491.848 228.071C480.299 205.894 474.524 179.299 474.524 148.289C474.524 117.184 480.299 90.5895 491.848 68.5059C503.492 46.3284 519.267 29.3664 539.174 17.6198C559.175 5.87328 581.804 0 607.064 0C632.323 0 654.906 5.87328 674.812 17.6198C694.813 29.3664 710.588 46.3284 722.138 68.5059C733.782 90.5895 739.603 117.184 739.603 148.289ZM687.066 148.289C687.066 126.393 683.639 107.927 676.784 92.8918C670.024 77.7622 660.634 66.3446 648.614 58.6388C636.595 50.8391 622.745 46.9393 607.064 46.9393C591.382 46.9393 577.532 50.8391 565.513 58.6388C553.494 66.3446 544.057 77.7622 537.202 92.8918C530.441 107.927 527.061 126.393 527.061 148.289C527.061 170.184 530.441 188.697 537.202 203.826C544.057 218.862 553.494 230.28 565.513 238.079C577.532 245.785 591.382 249.638 607.064 249.638C622.745 249.638 636.595 245.785 648.614 238.079C660.634 230.28 670.024 218.862 676.784 203.826C683.639 188.697 687.066 170.184 687.066 148.289Z" fill="black"/>
<path d="M240.924 292.63V3.94687H428.536V47.785H240.924V126.158H418.818V169.996H240.924V248.792H429.663V292.63H240.924Z" fill="black"/>
<path d="M0 292.63V3.94687H187.612V47.785H0V126.158H177.894V169.996H0V248.792H188.739V292.63H0Z" fill="black"/>
</svg>
